<svg width="24" height="24" viewBox="0 0 24 24" fill="none" xmlns="http://www.w3.org/2000/svg">
<g clip-path="url(#clip0_939_6862)">
<g filter="url(#filter0_f_939_6862)">
<path d="M17.4339 21.2454C17.4339 21.433 14.9841 21.585 11.9622 21.585C8.94024 21.585 6.49048 21.433 6.49048 21.2454C6.49048 21.0578 8.94024 20.9058 11.9622 20.9058C14.9841 20.9058 17.4339 21.0578 17.4339 21.2454Z" fill="#E7F8FE"/>
</g>
<path d="M17.2076 12C17.2076 14.8761 14.8761 17.2076 12 17.2076C9.12398 17.2076 6.79248 14.8761 6.79248 12C6.79248 9.12398 9.12398 6.79248 12 6.79248C14.8761 6.79248 17.2076 9.12398 17.2076 12Z" fill="url(#paint0_linear_939_6862)"/>
</g>
<defs>
<filter id="filter0_f_939_6862" x="-8.40768" y="6.0076" width="40.7397" height="30.4755" filterUnits="userSpaceOnUse" color-interpolation-filters="sRGB">
<feFlood flood-opacity="0" result="BackgroundImageFix"/>
<feBlend mode="normal" in="SourceGraphic" in2="BackgroundImageFix" result="shape"/>
<feGaussianBlur stdDeviation="7.44908" result="effect1_foregroundBlur_939_6862"/>
</filter>
<linearGradient id="paint0_linear_939_6862" x1="14.0978" y1="7.27461" x2="9.71042" y2="17.2065" gradientUnits="userSpaceOnUse">
<stop stop-color="#FFD88B"/>
<stop offset="1" stop-color="#FFA900"/>
</linearGradient>
<clipPath id="clip0_939_6862">
<rect width="24" height="24" rx="12" fill="white"/>
</clipPath>
</defs>
</svg>
