<svg width="24" height="24" viewBox="0 0 24 24" fill="none" xmlns="http://www.w3.org/2000/svg">
<g clip-path="url(#clip0_939_6991)">
<path d="M11.0544 11.1698H6.53097C6.25876 11.1698 6.03784 11.1022 6.03784 11.0189C6.03784 10.9355 6.25876 10.8679 6.53097 10.8679H11.0544C11.3266 10.8679 11.5473 10.9355 11.5473 11.0189C11.5473 11.1022 11.3266 11.1698 11.0544 11.1698Z" fill="#9DB7BF"/>
<path d="M19.4311 11.9999H8.56954C8.29693 11.9999 8.07568 11.9155 8.07568 11.8112C8.07568 11.707 8.29693 11.6226 8.56954 11.6226H19.4311C19.7037 11.6226 19.9247 11.707 19.9247 11.8112C19.9247 11.9155 19.7037 11.9999 19.4311 11.9999Z" fill="#9DB7BF"/>
<path d="M15.0659 9.66029H7.65153C7.38544 9.66029 7.16992 9.59265 7.16992 9.5093C7.16992 9.42596 7.38544 9.3584 7.65153 9.3584H15.0659C15.3318 9.3584 15.5473 9.42596 15.5473 9.5093C15.5473 9.59265 15.3318 9.66029 15.0659 9.66029Z" fill="#9DB7BF"/>
<path d="M13.6339 14.4035L17.5376 14.414C17.7726 14.4146 17.963 14.4827 17.9628 14.5661C17.9626 14.6495 17.7717 14.7165 17.5368 14.7159L13.6331 14.7054C13.3981 14.7048 13.2079 14.6367 13.2081 14.5533C13.2083 14.47 13.399 14.4029 13.6339 14.4035Z" fill="#9DB7BF"/>
<path d="M6.46337 13.5586L15.8029 13.5837C16.0373 13.5843 16.2273 13.6693 16.2271 13.7735C16.2268 13.8777 16.0363 13.9616 15.8019 13.961L6.46236 13.9359C6.22795 13.9353 6.03815 13.8504 6.03843 13.7462C6.03871 13.6419 6.22896 13.558 6.46337 13.5586Z" fill="#9DB7BF"/>
<path d="M10.2242 15.9063L16.5698 15.9233C16.7976 15.9239 16.9818 15.9921 16.9816 16.0754C16.9814 16.1588 16.7967 16.2258 16.569 16.2252L10.2234 16.2082C9.99587 16.2076 9.8116 16.1395 9.81182 16.0562C9.81204 15.9728 9.99668 15.9057 10.2242 15.9063Z" fill="#9DB7BF"/>
</g>
<defs>
<clipPath id="clip0_939_6991">
<rect width="24" height="24" rx="12" fill="white"/>
</clipPath>
</defs>
</svg>
