<svg width="15" height="15" viewBox="0 0 15 15" fill="none" xmlns="http://www.w3.org/2000/svg">
<path d="M7.5 3.40625C5.5 3.40625 3.90625 5.03125 3.90625 7C3.90625 9 5.5 10.5938 7.5 10.5938C9.46875 10.5938 11.0938 9 11.0938 7C11.0938 5.03125 9.46875 3.40625 7.5 3.40625ZM7.5 9.34375C6.21875 9.34375 5.15625 8.3125 5.15625 7C5.15625 5.71875 6.1875 4.6875 7.5 4.6875C8.78125 4.6875 9.8125 5.71875 9.8125 7C9.8125 8.3125 8.78125 9.34375 7.5 9.34375ZM12.0625 3.28125C12.0625 2.8125 11.6875 2.4375 11.2188 2.4375C10.75 2.4375 10.375 2.8125 10.375 3.28125C10.375 3.75 10.75 4.125 11.2188 4.125C11.6875 4.125 12.0625 3.75 12.0625 3.28125ZM14.4375 4.125C14.375 3 14.125 2 13.3125 1.1875C12.5 0.375 11.5 0.125 10.375 0.0625C9.21875 0 5.75 0 4.59375 0.0625C3.46875 0.125 2.5 0.375 1.65625 1.1875C0.84375 2 0.59375 3 0.53125 4.125C0.46875 5.28125 0.46875 8.75 0.53125 9.90625C0.59375 11.0312 0.84375 12 1.65625 12.8438C2.5 13.6562 3.46875 13.9062 4.59375 13.9688C5.75 14.0312 9.21875 14.0312 10.375 13.9688C11.5 13.9062 12.5 13.6562 13.3125 12.8438C14.125 12 14.375 11.0312 14.4375 9.90625C14.5 8.75 14.5 5.28125 14.4375 4.125ZM12.9375 11.125C12.7188 11.75 12.2188 12.2188 11.625 12.4688C10.6875 12.8438 8.5 12.75 7.5 12.75C6.46875 12.75 4.28125 12.8438 3.375 12.4688C2.75 12.2188 2.28125 11.75 2.03125 11.125C1.65625 10.2188 1.75 8.03125 1.75 7C1.75 6 1.65625 3.8125 2.03125 2.875C2.28125 2.28125 2.75 1.8125 3.375 1.5625C4.28125 1.1875 6.46875 1.28125 7.5 1.28125C8.5 1.28125 10.6875 1.1875 11.625 1.5625C12.2188 1.78125 12.6875 2.28125 12.9375 2.875C13.3125 3.8125 13.2188 6 13.2188 7C13.2188 8.03125 13.3125 10.2188 12.9375 11.125Z" fill="#758E93"/>
</svg>
