<svg width="17" height="16" viewBox="0 0 17 16" fill="none" xmlns="http://www.w3.org/2000/svg">
<path d="M8.76709 15C4.9011 15 1.76709 11.866 1.76709 8C1.76709 4.13401 4.9011 1 8.76709 1C12.6331 1 15.7671 4.13401 15.7671 8C15.7671 11.866 12.6331 15 8.76709 15ZM8.76709 16C13.1854 16 16.7671 12.4183 16.7671 8C16.7671 3.58172 13.1854 0 8.76709 0C4.34881 0 0.76709 3.58172 0.76709 8C0.76709 12.4183 4.34881 16 8.76709 16Z" fill="black"/>
<path d="M8.76709 4C9.04323 4 9.26709 4.22386 9.26709 4.5V7.5H12.2671C12.5432 7.5 12.7671 7.72386 12.7671 8C12.7671 8.27614 12.5432 8.5 12.2671 8.5H9.26709V11.5C9.26709 11.7761 9.04323 12 8.76709 12C8.49095 12 8.26709 11.7761 8.26709 11.5V8.5H5.26709C4.99095 8.5 4.76709 8.27614 4.76709 8C4.76709 7.72386 4.99095 7.5 5.26709 7.5H8.26709V4.5C8.26709 4.22386 8.49095 4 8.76709 4Z" fill="black"/>
</svg>
