<svg width="8" height="17" viewBox="0 0 8 17" fill="none" xmlns="http://www.w3.org/2000/svg">
<path d="M5.5 13.1138C5.5 13.9422 4.82843 14.6138 4 14.6138C3.17157 14.6138 2.5 13.9422 2.5 13.1138C2.5 12.4607 2.9174 11.905 3.5 11.6991V10.1138C3.5 9.83763 3.72386 9.61377 4 9.61377C4.27614 9.61377 4.5 9.83763 4.5 10.1138V11.6991C5.0826 11.905 5.5 12.4607 5.5 13.1138Z" fill="#DDE3E4"/>
<path d="M1.5 3.11377C1.5 1.73306 2.61929 0.61377 4 0.61377C5.38071 0.61377 6.5 1.73306 6.5 3.11377V10.6643C7.11804 11.2951 7.5 12.1601 7.5 13.1138C7.5 15.0468 5.933 16.6138 4 16.6138C2.067 16.6138 0.5 15.0468 0.5 13.1138C0.5 12.1601 0.881961 11.2951 1.5 10.6643V3.11377ZM4 1.61377C3.17157 1.61377 2.5 2.28534 2.5 3.11377V11.1012L2.33346 11.2502C1.8212 11.7087 1.5 12.3734 1.5 13.1138C1.5 14.4945 2.61929 15.6138 4 15.6138C5.38071 15.6138 6.5 14.4945 6.5 13.1138C6.5 12.3734 6.1788 11.7087 5.66654 11.2502L5.5 11.1012V3.11377C5.5 2.28534 4.82843 1.61377 4 1.61377Z" fill="#DDE3E4"/>
</svg>
